/* XPM */
static char *Tab[] = {
/* columns rows colors chars-per-pixel */
"30 15 2 1 ",
"  c None",
". c black",
/* pixels */
"                              ",
"  .........         .         ",
"      ..            .         ",
"      ..            .         ",
"      ..    .....   . ...     ",
"      ..   ..   ..  ... ..    ",
"      ..   .    ..  ..   ..   ",
"      ..        ..  .     .   ",
"      ..    ......  .     .   ",
"      ..   ..   ..  .     .   ",
"      ..   .    ..  ..   ..   ",
"      ..   ..  ...  ..   .    ",
"      ..    .... .  . ...     ",
"                              ",
"                              "
};
